<svg xmlns="http://www.w3.org/2000/svg" xmlns:xlink="http://www.w3.org/1999/xlink" version="1.1" id="Logo" x="0px" y="0px" viewBox="0 0 227.3 67.2" style="enable-background:new 0 0 227.3 67.2;" xml:space="preserve">
<style type="text/css">
	.st0{opacity:0;}
	.st1{fill:#FFFFFF;}
	.st2{fill:#002B47;}
	.st3{fill:#005172;}
	.st4{fill:#008A00;}
</style>
<g class="st0">
	<path class="st1" d="M227.2,0.1v67H0.1v-67H227.2 M227.3,0H0v67.2h227.3V0L227.3,0z"></path>
</g>
<g>
	<g>
		<path class="st2" d="M87,18.7l-3.4,9.4h-1.4l-2.4-6.7c-0.8,2.2-1.7,4.5-2.4,6.7H76l-3.4-9.4h1.8l2.3,6.2l2.3-6.2h1.7l2.3,6.2    l2.3-6.2H87z"></path>
		<path class="st2" d="M114.2,21.2h-1.7v-0.7c0-0.1,0-0.1-0.1-0.1h-5.8c-0.1,0-0.1,0-0.1,0.1v5.8c0,0.1,0,0.1,0.1,0.1h5.8    c0.1,0,0.1,0,0.1-0.1v-1.8h-2.1v-1.7h3.9v3.5c0,1-0.8,1.8-1.8,1.8h-5.8c-1,0-1.8-0.8-1.8-1.8v-5.8c0-1,0.8-1.8,1.8-1.8h5.8    c1,0,1.8,0.8,1.8,1.8V21.2z"></path>
		<path class="st2" d="M128.4,20.4h-6.9v2.1h5.6v1.7h-5.6v2.1h6.9v1.7h-8.6v-9.4h8.6V20.4z"></path>
		<path class="st2" d="M141.2,18.7h1.7v9.4h-1.9l-5.8-6.9v6.9h-1.7v-9.4h1.9l5.8,6.9V18.7z"></path>
		<path class="st2" d="M148,18.7h1.7v9.4H148V18.7z"></path>
		<path class="st2" d="M162.7,18.7h1.7v9.4h-1.9l-5.8-6.9v6.9h-1.7v-9.4h1.9l5.8,6.9V18.7z"></path>
		<path class="st2" d="M179,21.2h-1.7v-0.7c0-0.1,0-0.1-0.1-0.1h-5.8c-0.1,0-0.1,0-0.1,0.1v5.8c0,0.1,0,0.1,0.1,0.1h5.8    c0.1,0,0.1,0,0.1-0.1v-1.8h-2.1v-1.7h3.9v3.5c0,1-0.8,1.8-1.8,1.8h-5.8c-1,0-1.8-0.8-1.8-1.8v-5.8c0-1,0.8-1.8,1.8-1.8h5.8    c1,0,1.8,0.8,1.8,1.8V21.2z"></path>
		<path class="st2" d="M193,20.4h-6.9v2.1h5.6v1.7h-5.6v2.1h6.9v1.7h-8.6v-9.4h8.6V20.4z"></path>
		<path class="st2" d="M205.7,18.7h1.7v9.4h-1.9l-5.8-6.9v6.9H198v-9.4h1.9l5.8,6.9V18.7z"></path>
		<path class="st2" d="M98.4,20.5c-0.4-1.1-0.8-1.8-1.8-1.8h-2.8c-1,0-1.4,0.7-1.8,1.8l-2.7,7.6H91l1.1-3.2h6.1l1.2,3.2h1.7    L98.4,20.5z M92.7,23.2l0.9-2.7c0-0.1,0-0.1,0.1-0.1h2.9c0.1,0,0.1,0,0.1,0.1l0.9,2.7H92.7z"></path>
	</g>
	<g>
		<g>
			<path class="st2" d="M77.9,35.5h0.8v4.6c0,0.6-0.4,1-1,1h-3.6c-0.6,0-1-0.4-1-1v-4.6H74v4.6c0,0.1,0.1,0.2,0.2,0.2h3.6     c0.1,0,0.2-0.1,0.2-0.2V35.5z"></path>
			<path class="st2" d="M85.6,35.5h0.8v5.6h-1l-3.7-4.5v4.5h-0.8v-5.6h1l3.7,4.5V35.5z"></path>
			<path class="st2" d="M88.5,35.5h0.8v5.6h-0.8V35.5z"></path>
			<path class="st2" d="M96.5,35.5h1l-3.2,5.6h-0.8l-3.2-5.6h1l2.7,4.6L96.5,35.5z"></path>
			<path class="st2" d="M103.4,36.3h-4.3v1.5h3.4v0.8h-3.4v1.5h4.3v0.8h-5.1v-5.6h5.1V36.3z"></path>
			<path class="st2" d="M110.9,38.1c0,0.5-0.4,1-1,1h-0.6l1.6,1.9v0.1h-1l-1.7-2h-1.9c-0.1,0-0.1,0-0.2,0v2h-0.8v-5.6h4.6     c0.6,0,1,0.5,1,1V38.1z M106.2,36.3v1.9l3.7,0c0.1,0,0.2-0.1,0.2-0.2v-1.6c0-0.1-0.1-0.2-0.2-0.2L106.2,36.3z"></path>
			<path class="st2" d="M156.3,38.1c0,0.5-0.4,1-1,1h-0.6l1.6,1.9v0.1h-1l-1.7-2h-1.9c-0.1,0-0.1,0-0.2,0v2h-0.8v-5.6h4.6     c0.6,0,1,0.5,1,1V38.1z M151.6,36.3v1.9l3.7,0c0.1,0,0.2-0.1,0.2-0.2v-1.6c0-0.1-0.1-0.2-0.2-0.2L151.6,36.3z"></path>
			<path class="st2" d="M192.7,38.1c0,0.5-0.4,1-1,1h-0.6l1.6,1.9v0.1h-1l-1.7-2h-1.9c-0.1,0-0.1,0-0.2,0v2h-0.8v-5.6h4.6     c0.6,0,1,0.5,1,1V38.1z M187.9,36.3v1.9l3.7,0c0.1,0,0.2-0.1,0.2-0.2v-1.6c0-0.1-0.1-0.2-0.2-0.2L187.9,36.3z"></path>
			<path class="st2" d="M118.5,36.8h-0.8v-0.3c0-0.1-0.1-0.2-0.2-0.2h-3.6c-0.1,0-0.2,0.1-0.2,0.2v1.2c0,0.1,0.1,0.2,0.2,0.2h3.6     c0.6,0,1,0.5,1,1v1.2c0,0.6-0.4,1-1,1h-3.6c-0.6,0-1-0.4-1-1v-0.3h0.8v0.3c0,0.1,0.1,0.2,0.2,0.2h3.6c0.1,0,0.2-0.1,0.2-0.2v-1.2     c0-0.1-0.1-0.2-0.2-0.2h-3.6c-0.6,0-1-0.5-1-1v-1.2c0-0.6,0.4-1,1-1h3.6c0.6,0,1,0.4,1,1V36.8z"></path>
			<path class="st2" d="M120.5,35.5h0.8v5.6h-0.8V35.5z"></path>
			<path class="st2" d="M128.3,35.5v0.8h-2.4v4.7h-0.8v-4.7h-2.4v-0.8H128.3z"></path>
			<path class="st2" d="M134.9,35.5l-2.6,3.5v2.1h-0.8V39l-2.6-3.5h1l2,2.5l2-2.5H134.9z"></path>
			<path class="st2" d="M163.4,36.3h-4.3v1.5h3.4v0.8h-3.4v1.5h4.3v0.8h-5.1v-5.6h5.1V36.3z"></path>
			<path class="st2" d="M170.7,36.8h-0.8v-0.3c0-0.1-0.1-0.2-0.2-0.2h-3.6c-0.1,0-0.2,0.1-0.2,0.2v1.2c0,0.1,0.1,0.2,0.2,0.2h3.6     c0.6,0,1,0.5,1,1v1.2c0,0.6-0.4,1-1,1h-3.6c-0.6,0-1-0.4-1-1v-0.3h0.8v0.3c0,0.1,0.1,0.2,0.2,0.2h3.6c0.1,0,0.2-0.1,0.2-0.2v-1.2     c0-0.1-0.1-0.2-0.2-0.2h-3.6c-0.6,0-1-0.5-1-1v-1.2c0-0.6,0.4-1,1-1h3.6c0.6,0,1,0.4,1,1V36.8z"></path>
			<path class="st2" d="M177.9,36.3h-4.3v1.5h3.4v0.8h-3.4v1.5h4.3v0.8h-5.1v-5.6h5.1V36.3z"></path>
			<path class="st2" d="M183.2,35.5c0.6,0,0.9,0.4,1.1,1l1.6,4.6H185l-0.7-1.9h-3.9l-0.7,1.9h-0.8l1.7-4.6c0.2-0.6,0.4-1,1-1H183.2z      M184.1,38.3l-0.7-1.8c0-0.1-0.1-0.2-0.2-0.2h-1.6c-0.1,0-0.1,0.1-0.2,0.2l-0.7,1.8H184.1z"></path>
			<path class="st2" d="M195.6,36.3c-0.1,0-0.2,0.1-0.2,0.2v3.6c0,0.1,0.1,0.2,0.2,0.2h4.5v0.8h-4.5c-0.6,0-1-0.4-1-1v-3.6     c0-0.6,0.4-1,1-1h4.5v0.8H195.6z"></path>
			<path class="st2" d="M207.5,35.5v5.6h-0.8v-2.4h-4v2.4h-0.8v-5.6h0.8v2.4h4v-2.4H207.5z"></path>
		</g>
		<path class="st2" d="M145.7,40.2l-1-0.6V38h-0.8v1.1c0,0-3-1.9-3.1-1.9l0,0c-0.1,0-0.1-0.1-0.1-0.1v-0.5c0-0.1,0.1-0.2,0.2-0.2    h2.1c0.1,0,0.2,0.1,0.2,0.2v0.4h0.8v-0.5c-0.1-0.5-0.5-0.8-1-0.8h-2.1c-0.6,0-1,0.4-1,1c0,0,0,0.6,0,0.6c0,0.3,0.2,0.4,0.4,0.5    l-0.2,0c-0.6,0-1,0.2-1,0.7v1.7c0,0.6,0.4,1,1,1h3.6c0.4,0,0.8-0.3,0.9-0.7l0,0l1,0.7V40.2z M143.8,40.1c0,0.1-0.1,0.2-0.2,0.2    h-3.6c-0.1,0-0.2-0.1-0.2-0.2l0-1.7c0,0,0,0,0-0.1c0-0.1,0.1-0.1,0.2-0.1l0.4,0h0.6l2.7,1.7V40.1z"></path>
	</g>
</g>
<path class="st2" d="M67.2,41.1c0.5-0.5-1.2-1.1-1.2-1.1s-1.9-0.9-9.3-1.5v2.5H55h-9.7v-2.9c-2.3-0.1-6.8,0-9.9,0v2.9h-7.8h-0.8  h-2.8v-2.5c-5,0.3-8.2,1-8.2,1s-0.5,0.5-0.6,0.5c-0.6,0.4,0,0.6,0.4,0.8c0.2,0.1,0.2,0.1,0.1,0.3c0,0.1-0.4,0.2-0.4,0.4  c0.2,0.5,0.8,0,0.8,0.7c-0.1,0.7-1.7,0.3-1.9,1c-0.1,0.5,0.6,0,0.6,1.1c0,1,0.8,2.1,2.9,2.6c0.5,0.1,2.9,0.1,1.7,0.8  c-0.1,0.1-0.6,0.1-0.8,0.1c-0.2,0-0.8,0-0.9,0.2c-0.2,0.3,0.3,0.3,0.2,0.6c-0.3,0-0.9,0-0.6,0.5c0.1,0.2,0.6,0.4,0.8,0.4  c1.3-0.1,1.2,0,1.6,0.1c-0.7,0.1-1.4,0.9,1.4,0.8c0.1,0.4,0.8,0.4,1.1,0.3c17.5-3.9,25.1-2.2,25.1-3.3C47,47,44.5,47.1,44.1,47  c-1.6-0.1-5,0.1-4.8-0.3c0.1-1,17.8-0.7,15.8-0.1c-0.1,0-1.3,0.2-1.5,0.3c-1,0.5,2.7,0.6,3.1,0.7c0.4,0,1.5,0,1.3,0.5  c-0.1,0.1-1.4,0-1.3,0.2c0,0.2,0.8,0.1,0.9,0.2c0.5,0.8-6.5,0.4-10.2,0.5c-1.1,0-3.2,0.1-4.3,0.3c-1.8,0.2-0.3,0.7,2.6,0.9  c1.5,0.1,9.5,0.8,16.2,1.7c2,0.4,2.6-0.6,2.2-0.9c-0.3-0.2,0.9-0.7-0.4-1.2c-0.8-0.3-0.1-0.5-0.1-0.5c0.1,0,1.7,0.4,1.1-0.1  C64.3,48.8,65,49,65.1,49c1.5-0.1,1.1-0.7,1.2-0.6c-0.4-0.4,0.8-0.8,0.5-1.7c-0.1-0.3-1.8-0.2-0.7-0.5c0.1,0,1.7,0,0.2-0.8  c-0.3-0.2-0.7-0.2-1.1-0.3c-1.1-0.2-0.3-0.8,0.3-0.7c0.7,0.1,1.3-0.3,1.2-1C66.6,42.5,66.3,41.3,67.2,41.1z"></path>
<polygon class="st4" points="25.6,15.2 25.6,41.1 35.3,41.1 35.3,25 45.2,25 45.2,41.1 55,41.1 55,15.2"></polygon>
</svg>